<svg width="53" height="45" viewBox="0 0 53 45" fill="none" xmlns="http://www.w3.org/2000/svg">
<path opacity="0.8" d="M29.8237 43.0279C32.9379 40.1594 35.8124 36.6932 38.4475 32.6295C40.9627 28.5657 42.2203 25.1594 42.2203 22.4104C42.2203 18.9442 40.0644 17.2112 35.7525 17.2112C33.5966 17.2112 32.0994 16.4343 31.261 14.8805C30.4226 13.3267 30.0034 11.5339 30.0034 9.50199C30.0034 6.99203 31.0814 4.78087 33.2373 2.86852C35.2734 0.956168 37.6689 -1.34029e-06 40.4237 -1.09945e-06C44.6158 -7.32968e-07 47.7898 1.25497 49.9458 3.76493C51.9819 6.39442 53 10.0996 53 14.8805C53 20.8566 50.9638 26.4741 46.8915 31.7331C42.8192 37.1116 38.2678 41.5339 33.2373 45L29.8237 43.0279ZM-3.64229e-06 43.0279C3.11412 40.1594 5.9887 36.6932 8.62373 32.6295C11.139 28.5657 12.3966 25.1594 12.3966 22.4104C12.3966 18.9442 10.2407 17.2112 5.92882 17.2112C3.77288 17.2112 2.27571 16.4343 1.43729 14.8805C0.598872 13.3267 0.179668 11.5339 0.179668 9.50198C0.179668 6.99202 1.25763 4.78087 3.41357 2.86852C5.44972 0.956165 7.8452 -3.94756e-06 10.6 -3.70673e-06C14.7921 -3.34024e-06 17.9661 1.25497 20.122 3.76493C22.1582 6.39441 23.1763 10.0996 23.1763 14.8805C23.1763 20.8566 21.1401 26.4741 17.0678 31.7331C12.9955 37.1116 8.44407 41.5339 3.41356 45L-3.64229e-06 43.0279Z" fill="black"/>
</svg>
