<svg width="53" height="45" viewBox="0 0 53 45" fill="none" xmlns="http://www.w3.org/2000/svg">
<path opacity="0.8" d="M23.1763 1.97211C20.0621 4.84064 17.1876 8.30678 14.5525 12.3705C12.0373 16.4343 10.7797 19.8406 10.7797 22.5896C10.7797 26.0558 12.9356 27.7888 17.2475 27.7888C19.4034 27.7888 20.9006 28.5657 21.739 30.1195C22.5774 31.6733 22.9966 33.4661 22.9966 35.498C22.9966 38.008 21.9186 40.2191 19.7627 42.1315C17.7266 44.0438 15.3311 45 12.5763 45C8.38418 45 5.21017 43.745 3.05424 41.2351C1.01808 38.6056 0 34.9004 0 30.1195C0 24.1434 2.03616 18.5259 6.10847 13.2669C10.1808 7.88844 14.7322 3.46613 19.7627 0L23.1763 1.97211ZM53 1.97211C49.8859 4.84064 47.0113 8.30678 44.3763 12.3705C41.861 16.4343 40.6034 19.8406 40.6034 22.5896C40.6034 26.0558 42.7593 27.7888 47.0712 27.7888C49.2271 27.7888 50.7243 28.5657 51.5627 30.1195C52.4011 31.6733 52.8203 33.4661 52.8203 35.498C52.8203 38.008 51.7424 40.2191 49.5864 42.1315C47.5503 44.0438 45.1548 45 42.4 45C38.2079 45 35.0339 43.745 32.878 41.2351C30.8418 38.6056 29.8237 34.9004 29.8237 30.1195C29.8237 24.1434 31.8599 18.5259 35.9322 13.2669C40.0045 7.88844 44.5559 3.46613 49.5864 0L53 1.97211Z" fill="black"/>
</svg>
